<svg xmlns="http://www.w3.org/2000/svg"  viewBox="0 0 64 64" width="512px" height="512px"><ellipse cx="32" cy="61" opacity=".3" rx="20.125" ry="3"/><circle cx="32" cy="28" r="21.5" fill="none" stroke="#ffa602" stroke-miterlimit="10" stroke-width="5"/><circle cx="17" cy="12" r="6" fill="#fd3c4f"/><circle cx="48" cy="13" r="6" fill="#ffce29"/><circle cx="53" cy="28" r="6" fill="#fd3c4f"/><path fill="orange" d="M54,13h-6v6C51.314,19,54,16.314,54,13z"/><circle cx="33" cy="6" r="6" fill="#ffce29"/><circle cx="11" cy="27" r="6" fill="#ffce29"/><circle cx="33" cy="49" r="6" fill="#ffce29"/><circle cx="48" cy="43" r="6" fill="#ffce29"/><path fill="#fff" d="M42,13h6V7C44.686,7,42,9.686,42,13z" opacity=".3"/><circle cx="17" cy="43" r="6" fill="#fd3c4f"/><path fill="#ffa1ac" d="M11,43h6v-6C13.686,37,11,39.686,11,43z"/><path fill="#fff" d="M10,27c0-0.479,0.331-0.814,0.659-0.935c1.497-0.549,2.644-1.779,3.084-3.312 c0.19-0.661,0.428-1.305,0.689-1.94c0.002-0.005,0.004-0.01,0.006-0.015c0.438-1.062,0.961-2.09,1.588-3.062 c1.023-1.585,1.066-3.611,0.112-5.239C16.045,12.339,16,12.176,16,12c0-0.552,0.448-1,1-1c0.204,0,0.391,0.057,0.556,0.168 c1.562,1.056,3.585,1.144,5.231,0.225c0.055-0.031,0.113-0.055,0.169-0.086c0-0.004,0-0.008-0.001-0.012 c0.788-0.428,1.611-0.801,2.461-1.115c0.907-0.338,1.837-0.604,2.784-0.798C30.068,9,31.558,7.59,32.039,5.745 C32.133,5.387,32.474,5,33,5c2.014,0,3.738-1.197,4.53-2.912C36.432,0.813,34.815,0,33,0c-2.789,0-5.126,1.905-5.799,4.483 c-2.436,0.496-4.738,1.366-6.846,2.542C19.397,6.378,18.243,6,17,6c-3.314,0-6,2.686-6,6c0,1.105,0.304,2.137,0.825,3.026 c-1.253,1.942-2.233,4.074-2.887,6.345C6.642,22.213,5,24.412,5,27c0,1.814,0.81,3.434,2.084,4.532C8.802,30.741,10,29.015,10,27z" opacity=".3"/><path d="M33,55c2.588,0,4.787-1.642,5.629-3.938 c2.271-0.654,4.403-1.633,6.345-2.887C45.863,48.696,46.895,49,48,49c3.314,0,6-2.686,6-6c0-1.243-0.378-2.397-1.025-3.355 c1.058-1.899,1.864-3.955,2.377-6.125C57.496,32.606,59,30.479,59,28s-1.504-4.606-3.648-5.521 c-0.387-1.639-0.943-3.212-1.647-4.703c-1.279,0.448-2.378,1.396-2.952,2.741c-1.084,2.539,0.097,5.477,2.637,6.561 C53.671,27.198,54,27.512,54,28s-0.329,0.802-0.61,0.922c-1.461,0.623-2.539,1.903-2.904,3.448 c-0.075,0.319-0.167,0.633-0.259,0.947c0,0,0.001,0.001,0.001,0.001c-0.002,0.008-0.006,0.015-0.008,0.023 c-0.176,0.601-0.382,1.192-0.616,1.771c-0.045,0.112-0.095,0.22-0.142,0.331c-0.188,0.44-0.392,0.873-0.614,1.298 c-0.051,0.099-0.09,0.205-0.143,0.303c-0.004,0-0.008,0-0.012-0.001c-0.03,0.056-0.056,0.113-0.086,0.169 c-0.917,1.647-0.83,3.67,0.225,5.231C48.943,42.609,49,42.796,49,43c0,0.728-0.839,1.251-1.498,0.861 c-1.626-0.953-3.655-0.91-5.239,0.112c-0.972,0.627-2,1.151-3.062,1.588c-0.005,0.002-0.01,0.004-0.015,0.006 c-0.635,0.261-1.279,0.499-1.94,0.689c-1.532,0.44-2.763,1.587-3.312,3.084C33.814,49.669,33.479,50,33,50 c-0.46,0-0.766-0.297-0.899-0.574c-1.193-2.489-4.178-3.542-6.67-2.346c-1.319,0.632-2.218,1.772-2.609,3.07 c1.521,0.631,3.112,1.128,4.771,1.437C28.56,53.604,30.614,55,33,55z" opacity=".15"/><path fill="#cd2e42" d="M23,43h-6v6C20.314,49,23,46.314,23,43z"/><path fill="none" stroke="#fff" stroke-linecap="round" stroke-linejoin="round" stroke-miterlimit="10" stroke-width="3" d="M17,9.5c-1.381,0-2.5,1.119-2.5,2.5"/></svg>