<svg xmlns="http://www.w3.org/2000/svg"  viewBox="0 0 512 512" width="512px" height="512px"><g data-name="Group"><polygon fill="#fedb41" points="481.04 372.24 481.04 405.57 30.96 405.57 30.96 372.24 133.15 372.24 481.04 372.24"/><path fill="#00acea" d="M481.04,347.67v24.57H133.15V339.86a55.839,55.839,0,0,0-55.84-55.84H30.96V158.93H201.19l4.71,23.45a39.125,39.125,0,0,1,26.76,10.59l11.91,11.19-59.53,35.88,11.24,18.65,64.61-38.94.14-.14,18.37,17.25-60.86,36.68,11.24,18.66,67.15-40.47a74.728,74.728,0,0,0,35.26,8.83h61.74A87.109,87.109,0,0,1,481.04,347.67Z"/><path fill="#00efd1" d="M296.93,251.73,229.78,292.2l-11.24-18.66,60.86-36.68,13.13,12.33Q294.69,250.54,296.93,251.73Z"/><polygon fill="#00efd1" points="261.03 219.61 260.89 219.75 196.28 258.69 185.04 240.04 244.57 204.16 261.03 219.61"/><polygon fill="#00efd1" points="190.66 106.43 201.19 158.93 30.96 158.93 30.96 106.43 190.66 106.43"/><path fill="#00efd1" d="M133.15,339.86v32.38H30.96V284.02H77.31A55.839,55.839,0,0,1,133.15,339.86Z"/><path fill="#083863" d="M393.93,253H332.19a67.207,67.207,0,0,1-31.511-8.117c-1.089-.578-2.183-1.311-3.26-1.967L238.133,187.19a46.985,46.985,0,0,0-25.586-12.316l-3.359-16.759a8.068,8.068,0,0,0-.282-1.406l-10.4-52.064A8.2,8.2,0,0,0,190.66,98H30.96c-4.418,0-7.96,4.012-7.96,8.43V405.57c0,4.418,3.542,8.43,7.96,8.43H481.04c4.418,0,7.96-4.012,7.96-8.43v-57.9C489,295.226,446.374,253,393.93,253Zm-111.209-2.047L232.5,281.218l-2.984-4.955,48.82-29.424Zm-34.832-32.708L199,247.708l-2.982-4.946,47.494-28.625ZM184.105,114l7.325,37H39V114ZM125,364H39V292H77.31A47.783,47.783,0,0,1,125,339.86ZM39,398V380H473v18Zm434-34H141V339.86A63.8,63.8,0,0,0,77.31,276H39V167H194.641l3.416,16.99A7.986,7.986,0,0,0,205.9,190.4a31,31,0,0,1,21.283,8.413l4.214,3.953L180.91,233.191a8,8,0,0,0-2.722,10.98l11.241,18.649a8,8,0,0,0,10.981,2.722l59.6-35.919,6.218,5.838L214.41,266.688a8,8,0,0,0-2.722,10.98l11.24,18.66a8,8,0,0,0,10.982,2.724L297.3,261.067A83.312,83.312,0,0,0,332.19,269h61.74c43.622,0,79.07,35.048,79.07,78.67Z"/></g></svg>