<svg xmlns="http://www.w3.org/2000/svg"  viewBox="0 0 48 48" width="480px" height="480px"><path fill="#81d4fa" d="M20.99,43c0.582,0,1.077-0.341,1.169-0.804l2.745-13.92c0.033-0.069,0.159-0.069,0.192,0l2.745,13.92	C27.933,42.659,28.428,43,29.01,43h11.773c0.666,0,1.201-0.443,1.183-0.98L41,14H25H9L8.034,42.02C8.015,42.557,8.55,43,9.217,43	H20.99z"/><polygon fill="#4fc3f7" points="20,48 9,48 9,43 21,43"/><polygon fill="#4fc3f7" points="30,48 41,48 41,43 29,43"/><rect width="32" height="8" x="9" y="7" fill="#4fc3f7"/><rect width="2" height="7" x="30" y="7" fill="#039be5"/><rect width="2" height="10" x="24" y="15" fill="#039be5"/><rect width="8" height="2" x="24" y="13" fill="#039be5"/><rect width="3" height="7" x="12" fill="#81d4fa"/><rect width="3" height="7" x="35" fill="#81d4fa"/></svg>