<svg xmlns="http://www.w3.org/2000/svg"  viewBox="0 0 340 340" width="340px" height="340px"><path fill="#7fa0e2" d="M149.7,271.907v58.286h98.892s.2-37.371-5.889-59.911Z"/><path fill="#395787" d="M191.086,330.193l-1.127-18.925a17.292,17.292,0,0,0-4.115-10.19l-2.448-2.865a1.981,1.981,0,0,1,2.317-3.094,49.227,49.227,0,0,1,5.858,3.089,17.4,17.4,0,0,1,8.2,13.992l.812,17.993Z"/><path fill="#395787" d="M149.7,284.248l96.762,7.142a149.606,149.606,0,0,0-3.759-21.108l-93,1.625Z"/><path fill="#67bfbf" d="M153.9,102.753a33.572,33.572,0,0,1-1.158,10.314,44.337,44.337,0,0,1-9.251,17.81c-10.133,12-41.134,52.573-39.333,98.052,0,0-.415,12.04,8.106,20.514l27.654,7.986a14.167,14.167,0,0,0,4.508,14.722,11.4,11.4,0,0,0,7.5,2.755h73.136l20.52-7.259s24.254,3.345,42.418-12a34.252,34.252,0,0,0,11.709-30.478c-.91-7.2-2.654-16.08-6-23.668,0,0-10.9-32.092-26.78-58.614a45.083,45.083,0,0,0-20.236-18c-7.7-3.439-17.689-11.194-19.933-28.511Z"/><path fill="#368781" d="M167.907,259.737a20.827,20.827,0,0,0,1.336-7.143c.193-10.818.34-38.318-2.558-57.64-3.681-24.538,5.752-37.5,5.752-37.5l-1.45-11.581s-15.475,15.648-12.38,47.8c0,0,4.2,34.314,3.562,56.575a21.019,21.019,0,0,1-2.125,8.43c-1.454,3.053-2.621,8.574,1.555,16.225h7.536A17.047,17.047,0,0,1,167.907,259.737Z"/><path fill="#e3edfc" d="M174.726,138.677s2.632-.1,36.46-21.743c8.44-5.4,18.817-20.128,18.817-20.128q.158-.5.3-1a64.09,64.09,0,0,0,1.686-7.593,4.388,4.388,0,0,0-1.647-4.164h0a4.366,4.366,0,0,1-1.462-4.875,41.281,41.281,0,0,0-5.289-37.4,4.292,4.292,0,0,1,1.555-6.309c.221-.11.451-.22.691-.328a3.617,3.617,0,0,0,1.558-5.254c-3.763-5.789-12.5-15.934-27.748-16.569a22.394,22.394,0,0,1-6.133-1.154c-9.074-3.022-36.7-8.717-55.766,25.053a2.473,2.473,0,0,0,.83,3.315l.453.283a2.468,2.468,0,0,1,.543,3.708,24.822,24.822,0,0,0-5.768,13.7,2.476,2.476,0,0,0,2.354,2.743h0a2.456,2.456,0,0,1,2.289,3.07c-1.912,7.428-5.115,27.418,10.1,43.137a76.921,76.921,0,0,1,11.774,16.164Z"/><path fill="#e3edfc" d="M160.334,123.349a116,116,0,0,1,12.1,34.105s5.982-15.888,39.81-37.532A42.757,42.757,0,0,0,229.992,96.8c-7.006,5.479-19.661,12.2-38.319,10.322C191.673,107.125,179.27,126.571,160.334,123.349Z"/><path fill="#3c3c4f" d="M164.634,93.758s11.106,15,14.268,31.183A2.171,2.171,0,0,0,182.643,126c7.06-7.758,23.788-28.376,24.713-50.47Z"/><path fill="#ffcac0" d="M161.409,37.709s-4.337,6.925-5.264,28.222a43.029,43.029,0,0,0,5.727,23.777c4.034,6.832,10.537,13.337,20.677,13.337,10.673,0,17.075-6.244,20.81-12.488a33.617,33.617,0,0,0,4.53-19.431c-.418-6.505-1.483-16.439-4.2-24.727l-17.866-8.69Z"/><path fill="#4a4a60" d="M161.409,37.709s-.234,7.516,11.979,11.744l4.7-5.872s7.751,7.751,25.6,2.818c0,0-3.149-18.085-20.765-18.085S161.409,37.709,161.409,37.709Z"/><path fill="#caddfc" d="M93.884,60.609s-9.438-2.622-16.763,3.685a12.462,12.462,0,0,0,.521,19.552l.244.175A12.223,12.223,0,0,1,81.6,88.273c1.937,3.6,6.974,9.009,18.9,4.451,9.006-3.442,10.784-9.625,10.472-14.666a18.456,18.456,0,0,0-7.763-13.785A20.213,20.213,0,0,0,93.884,60.609Z"/><path fill="#e6f0ff" d="M62.647,21.928A13.648,13.648,0,0,0,44.4,20.062a17.649,17.649,0,0,0-2.5,2.344c-3.785,4.3-1.142,10.089,1.433,13.887a13.472,13.472,0,0,0,11,6.1c3.391.005,7.313-1.294,10.543-5.925C68.812,30.837,66.071,25.6,62.647,21.928Z"/><circle cx="171.785" cy="64.65" r="4.173" fill="#e5837c"/><circle cx="189.099" cy="64.65" r="4.173" fill="#e5837c"/><circle cx="185.233" cy="167.896" r="4.173" fill="#368781"/><circle cx="185.928" cy="201.561" r="4.173" fill="#368781"/><circle cx="188.244" cy="238.237" r="4.173" fill="#368781"/><path fill="#368781" d="M140.046,173.293a2.12,2.12,0,0,0-4.224-.161c-2.425,21-5.935,49.166-8.909,64.281a14.767,14.767,0,0,1-14.644,12.025c5.193,5.166,13.7,9.01,27.649,7.991-8-19.192,1.2-47.039,1.2-47.039C140.925,197.415,140.49,184.265,140.046,173.293Z"/><path fill="#368781" d="M135.248,207.682c-3.154-1.055-8.617-.081-12.774.966a1.718,1.718,0,0,0-.106,3.305c4.521,1.427,10.687,3.558,13.959,5.5Z"/><path fill="#368781" d="M264.058,213.69a1.5,1.5,0,0,0,1.089-2.651l-.133-.106a18.012,18.012,0,0,0-10.842-3.7c-8.955-.16-30.655,1.9-38.2,24.654-7.038,21.235,3.151,36.421,9.09,43.017h12.166a8.055,8.055,0,0,0,7.379-4.685,24.1,24.1,0,0,0,.975-2.574c-28.7-8.747-20.737-33.591-20.737-33.591C230.476,213.051,254.4,212.866,264.058,213.69Z"/><path fill="#368781" d="M248.591,210.821c-.224-13.234-3.7-29.772-5.26-36.556a2.778,2.778,0,0,0-3.711-1.972h0a2.779,2.779,0,0,0-1.768,2.791c.445,6.166,1.664,24.86,1.051,36.642Z"/><path fill="#e5837c" d="M182.419,88.712a24.447,24.447,0,0,1-7.453-1.15,3,3,0,0,1,1.977-5.665c.084.028,8.094,2.7,13.549-1.826a3,3,0,0,1,3.83,4.62A18.318,18.318,0,0,1,182.419,88.712Z"/></svg>