<svg xmlns="http://www.w3.org/2000/svg"  viewBox="0 0 100 100" width="400px" height="400px"><path fill="#f58f8f" d="M55.576,39.251l4.203-11.149c0.986-2.616-0.947-5.411-3.743-5.411c-1.371,0-2.501,0.823-3.317,1.925 c-0.629,0.849-2.9,3.075-2.9,3.075s-2.271-2.226-2.9-3.075c-0.816-1.102-1.946-1.925-3.317-1.925h0 c-2.796,0-4.729,2.795-3.743,5.411l4.203,11.149c-22.151,7.172-29.243,15.544-29.243,35.44c0,5.523,3.373,10,10,10 c3.789,0,7.169-1.464,9.368-3.75c0,0,8.486,5.75,15.632,5.75c8,0,16-6,16-6c2.186,2.711,5.04,5,9,5c6.627,0,10-4.925,10-11 C84.819,56.522,72.394,44.696,55.576,39.251z"/><polygon fill="#fefdef" points="56,39 44,39 43,36 56,36"/><path fill="#1f212b" d="M57.092,38.939l3.836-10.176c0.579-1.536,0.367-3.259-0.567-4.608 c-0.783-1.132-1.992-1.874-3.329-2.086V14c0-0.553-0.448-1-1-1s-1,0.447-1,1v8.18c-1.085,0.317-2.088,1.05-2.904,2.15 c-0.347,0.468-1.342,1.499-2.096,2.259c-0.754-0.76-1.749-1.791-2.096-2.259c-0.815-1.101-1.819-1.834-2.904-2.151V14 c0-0.553-0.448-1-1-1s-1,0.447-1,1v8.069c-1.337,0.212-2.546,0.954-3.329,2.086c-0.934,1.351-1.146,3.073-0.566,4.608l3.834,10.171 C21.094,46.209,14.032,55.088,14.032,75c0,6.683,4.318,11,11,11c3.627,0,7.039-1.259,9.493-3.479 C36.729,83.906,43.777,88,50.032,88c6.866,0,13.583-4.131,15.826-5.653C68.609,85.476,71.618,87,75.032,87c6.682,0,11-4.71,11-12 C86.032,58.33,75.5,45.235,57.092,38.939z M41.007,28.059c-0.353-0.936-0.229-1.943,0.34-2.766C41.916,24.472,42.815,24,43.814,24 c1.147,0,2,0.826,2.514,1.521c0.658,0.887,2.766,2.96,3.003,3.193c0.39,0.381,1.011,0.381,1.4,0 c0.238-0.233,2.347-2.307,3.003-3.193C54.249,24.827,55.103,24,56.249,24c1,0,1.898,0.472,2.467,1.293 c0.568,0.822,0.692,1.83,0.34,2.766L56.063,36H44.001L41.007,28.059z M45.132,39l-0.754-2h11.307l-0.754,2H45.132z M75.032,85 c-3.064,0-5.676-1.471-8.222-4.628c-0.042-0.052-0.098-0.082-0.147-0.124c0.211-0.634,0.453-1.452,0.677-2.451 c0.061-0.27-0.109-0.537-0.378-0.598c-0.272-0.056-0.537,0.11-0.597,0.379c-0.234,1.046-0.491,1.888-0.705,2.513 c-0.078,0.032-0.157,0.057-0.227,0.109c-0.077,0.058-7.821,5.8-15.4,5.8c-6.75,0-14.989-5.522-15.071-5.578 c-0.116-0.078-0.243-0.121-0.374-0.146c-0.225-0.635-0.511-1.551-0.768-2.698c-0.06-0.27-0.323-0.436-0.597-0.379 c-0.269,0.061-0.439,0.328-0.378,0.598c0.266,1.189,0.56,2.132,0.794,2.798C31.533,82.758,28.402,84,25.032,84 c-6.636,0-9-4.649-9-9c0-19.347,6.671-27.404,28.551-34.489c0.257-0.083,0.469-0.268,0.588-0.511h9.723 c0.119,0.242,0.33,0.428,0.588,0.511C73.625,46.386,84.032,58.957,84.032,75C84.032,79.834,81.667,85,75.032,85z"/><path fill="#1f212b" d="M36.426,56.873c-0.245-0.128-0.548-0.033-0.674,0.213c-0.63,1.21-1.186,2.457-1.652,3.706 c-0.097,0.259,0.035,0.547,0.293,0.644c0.058,0.021,0.117,0.031,0.175,0.031c0.203,0,0.394-0.124,0.468-0.325 c0.452-1.211,0.991-2.42,1.602-3.595C36.766,57.303,36.67,57,36.426,56.873z"/><path fill="#1f212b" d="M39.611,51.149c-0.848,1.076-1.636,2.187-2.342,3.302c-0.148,0.233-0.079,0.542,0.155,0.69 c0.083,0.052,0.176,0.077,0.267,0.077c0.166,0,0.328-0.082,0.423-0.232c0.688-1.086,1.456-2.169,2.283-3.218 c0.171-0.217,0.134-0.531-0.083-0.702S39.782,50.933,39.611,51.149z"/><path fill="#1f212b" d="M33.159,70.746c0.006-0.275-0.213-0.505-0.489-0.511c-0.297,0.025-0.505,0.213-0.511,0.489 c-0.005,0.244-0.008,0.485-0.008,0.724c0,1.114,0.063,2.237,0.188,3.338c0.029,0.255,0.245,0.443,0.496,0.443 c0.019,0,0.038-0.001,0.057-0.003c0.274-0.031,0.472-0.279,0.44-0.554c-0.121-1.063-0.182-2.148-0.182-3.225 C33.151,71.218,33.154,70.984,33.159,70.746z"/><path fill="#1f212b" d="M33.784,63.341c-0.264-0.064-0.541,0.088-0.612,0.354c-0.35,1.31-0.613,2.651-0.783,3.987 c-0.035,0.273,0.159,0.523,0.433,0.559c0.021,0.003,0.042,0.004,0.063,0.004c0.248,0,0.463-0.185,0.496-0.438 c0.164-1.291,0.418-2.588,0.756-3.854C34.209,63.687,34.051,63.412,33.784,63.341z"/><path fill="#1f212b" d="M43.178,47.146c-0.563,0.563-1.098,1.125-1.607,1.687c-0.186,0.204-0.17,0.521,0.034,0.706 c0.096,0.087,0.216,0.13,0.336,0.13c0.136,0,0.271-0.056,0.37-0.164c0.499-0.55,1.023-1.101,1.574-1.651 c0.195-0.195,0.195-0.512,0-0.707S43.374,46.951,43.178,47.146z"/><path fill="#1f212b" d="M67.297,68.245c0.021,0,0.042-0.001,0.063-0.004c0.274-0.035,0.468-0.285,0.433-0.559 c-0.169-1.336-0.433-2.678-0.783-3.987c-0.071-0.267-0.346-0.42-0.612-0.354c-0.267,0.071-0.425,0.346-0.354,0.612 c0.338,1.267,0.592,2.563,0.756,3.854C66.833,68.061,67.049,68.245,67.297,68.245z"/><path fill="#1f212b" d="M66.083,60.792c-0.466-1.249-1.021-2.496-1.652-3.706c-0.127-0.246-0.429-0.34-0.674-0.213 c-0.245,0.127-0.34,0.43-0.212,0.674c0.611,1.175,1.15,2.384,1.602,3.595c0.075,0.201,0.266,0.325,0.468,0.325 c0.058,0,0.117-0.01,0.175-0.031C66.049,61.339,66.18,61.051,66.083,60.792z"/><path fill="#1f212b" d="M57.005,47.146c-0.195-0.195-0.512-0.195-0.707,0s-0.195,0.512,0,0.707 c0.551,0.551,1.075,1.102,1.574,1.651c0.099,0.108,0.234,0.164,0.37,0.164c0.12,0,0.24-0.043,0.336-0.13 c0.205-0.186,0.22-0.502,0.034-0.706C58.103,48.271,57.567,47.709,57.005,47.146z"/><path fill="#1f212b" d="M60.572,51.149c-0.17-0.217-0.484-0.254-0.702-0.083c-0.217,0.171-0.254,0.485-0.083,0.702 c0.827,1.049,1.595,2.132,2.283,3.218c0.095,0.15,0.257,0.232,0.423,0.232c0.091,0,0.184-0.025,0.267-0.077 c0.233-0.148,0.303-0.457,0.155-0.69C62.208,53.336,61.42,52.226,60.572,51.149z"/><path fill="#1f212b" d="M67.513,70.235c-0.276,0.006-0.495,0.235-0.489,0.511c0.005,0.238,0.008,0.472,0.008,0.702 c0,1.076-0.061,2.161-0.182,3.225c-0.031,0.274,0.166,0.522,0.44,0.554c0.019,0.002,0.038,0.003,0.057,0.003 c0.251,0,0.467-0.188,0.496-0.443c0.125-1.101,0.188-2.224,0.188-3.338c0-0.238-0.003-0.479-0.008-0.724 C68.018,70.448,67.813,70.262,67.513,70.235z"/></svg>